<svg width="14" height="14" viewBox="0 0 16 14" fill="none" xmlns="http://www.w3.org/2000/svg">
<path d="M3.17262 14C2.8907 14 2.5383 13.93 2.25638 13.86C1.97446 13.79 1.8335 13.65 1.69254 13.51L1.62206 13.44C1.55158 13.37 1.4811 13.23 1.4811 13.16C1.4811 13.02 1.55158 12.95 1.69254 12.88C2.25638 12.6 2.74974 12.11 3.03166 11.55C3.03166 11.48 3.03166 11.41 3.10214 11.34C1.1287 10.15 0.00101906 8.26 0.00101906 6.3C-0.069461 2.8 3.52502 0 7.96527 0C12.4055 0 16 2.8 16 6.3C16 9.8 12.4055 12.67 7.96527 12.67C7.54239 12.67 7.04903 12.67 6.62615 12.6C5.56895 13.51 4.37078 14 3.17262 14ZM2.46782 13.23C3.66598 13.51 5.07559 13.02 6.34423 11.97C6.34423 11.9 6.48519 11.83 6.55567 11.9C6.97855 11.97 7.47191 11.97 7.96527 11.97C11.9826 11.97 15.2952 9.45 15.2952 6.3C15.2952 3.15 11.9826 0.7 7.96527 0.7C3.9479 0.7 0.63534 3.22 0.63534 6.3C0.63534 8.12 1.76302 9.8 3.66598 10.85C3.80694 10.92 3.87742 11.13 3.80694 11.27C3.80694 11.48 3.73646 11.69 3.5955 11.9C3.31358 12.46 2.8907 12.88 2.46782 13.23Z" fill="#212121"/>
</svg>
