<svg width="12" height="13" viewBox="0 0 12 13" fill="none" xmlns="http://www.w3.org/2000/svg">
<path d="M11.4 7.7C11.2409 7.7 11.0883 7.76321 10.9757 7.87574C10.8632 7.98826 10.8 8.14087 10.8 8.3V10.7C10.8 10.8591 10.7368 11.0117 10.6243 11.1243C10.5117 11.2368 10.3591 11.3 10.2 11.3H1.8C1.64087 11.3 1.48826 11.2368 1.37574 11.1243C1.26321 11.0117 1.2 10.8591 1.2 10.7V8.3C1.2 8.14087 1.13679 7.98826 1.02426 7.87574C0.911742 7.76321 0.75913 7.7 0.6 7.7C0.44087 7.7 0.288258 7.76321 0.175736 7.87574C0.0632141 7.98826 0 8.14087 0 8.3V10.7C0 11.1774 0.189642 11.6352 0.527208 11.9728C0.864773 12.3104 1.32261 12.5 1.8 12.5H10.2C10.6774 12.5 11.1352 12.3104 11.4728 11.9728C11.8104 11.6352 12 11.1774 12 10.7V8.3C12 8.14087 11.9368 7.98826 11.8243 7.87574C11.7117 7.76321 11.5591 7.7 11.4 7.7ZM5.574 8.726C5.63106 8.78062 5.69835 8.82344 5.772 8.852C5.84382 8.88374 5.92148 8.90014 6 8.90014C6.07852 8.90014 6.15618 8.88374 6.228 8.852C6.30165 8.82344 6.36894 8.78062 6.426 8.726L8.826 6.326C8.93898 6.21302 9.00245 6.05978 9.00245 5.9C9.00245 5.74022 8.93898 5.58698 8.826 5.474C8.71302 5.36102 8.55978 5.29755 8.4 5.29755C8.24022 5.29755 8.08698 5.36102 7.974 5.474L6.6 6.854V1.1C6.6 0.94087 6.53679 0.788258 6.42426 0.675736C6.31174 0.563214 6.15913 0.5 6 0.5C5.84087 0.5 5.68826 0.563214 5.57574 0.675736C5.46321 0.788258 5.4 0.94087 5.4 1.1V6.854L4.026 5.474C3.97006 5.41806 3.90364 5.37368 3.83055 5.3434C3.75746 5.31313 3.67912 5.29755 3.6 5.29755C3.52088 5.29755 3.44254 5.31313 3.36945 5.3434C3.29636 5.37368 3.22994 5.41806 3.174 5.474C3.11806 5.52994 3.07368 5.59636 3.0434 5.66945C3.01313 5.74254 2.99755 5.82088 2.99755 5.9C2.99755 5.97912 3.01313 6.05746 3.0434 6.13055C3.07368 6.20364 3.11806 6.27006 3.174 6.326L5.574 8.726Z" fill="#9D9D9D"/>
</svg>
