<svg width="30" height="30" viewBox="0 0 30 30" fill="none" xmlns="http://www.w3.org/2000/svg">
<path d="M27.7817 0.000209743H2.21831C1.93095 -0.00375713 1.64563 0.0485803 1.37862 0.154233C1.11162 0.259886 0.868164 0.416785 0.662169 0.615969C0.456175 0.815153 0.291672 1.05272 0.178056 1.31511C0.0644402 1.57749 0.00393621 1.85955 0 2.14518V27.8548C0.00393621 28.1404 0.0644402 28.4225 0.178056 28.6849C0.291672 28.9473 0.456175 29.1848 0.662169 29.384C0.868164 29.5832 1.11162 29.7401 1.37862 29.8458C1.64563 29.9514 1.93095 30.0038 2.21831 29.9998H27.7817C28.069 30.0038 28.3544 29.9514 28.6214 29.8458C28.8884 29.7401 29.1318 29.5832 29.3378 29.384C29.5438 29.1848 29.7083 28.9473 29.8219 28.6849C29.9356 28.4225 29.9961 28.1404 30 27.8548V2.14518C29.9961 1.85955 29.9356 1.57749 29.8219 1.31511C29.7083 1.05272 29.5438 0.815153 29.3378 0.615969C29.1318 0.416785 28.8884 0.259886 28.6214 0.154233C28.3544 0.0485803 28.069 -0.00375713 27.7817 0.000209743ZM9.0996 25.1099H4.57243V11.61H9.0996V25.1099ZM6.83602 9.72007C6.21166 9.72007 5.61288 9.47354 5.1714 9.03471C4.72991 8.59588 4.48189 8.0007 4.48189 7.38011C4.48189 6.75951 4.72991 6.16433 5.1714 5.7255C5.61288 5.28667 6.21166 5.04014 6.83602 5.04014C7.16755 5.00277 7.50328 5.03542 7.82124 5.13596C8.1392 5.23651 8.4322 5.40267 8.68107 5.62357C8.92994 5.84448 9.12906 6.11514 9.2654 6.41784C9.40174 6.72054 9.47221 7.04846 9.47221 7.38011C9.47221 7.71176 9.40174 8.03967 9.2654 8.34237C9.12906 8.64507 8.92994 8.91574 8.68107 9.13664C8.4322 9.35754 8.1392 9.52371 7.82124 9.62425C7.50328 9.72479 7.16755 9.75745 6.83602 9.72007ZM25.4276 25.1099H20.9004V17.865C20.9004 16.05 20.2515 14.865 18.6066 14.865C18.0976 14.8687 17.6019 15.0274 17.1864 15.3198C16.7708 15.6121 16.4555 16.024 16.2827 16.5C16.1646 16.8525 16.1134 17.2238 16.1318 17.595V25.0949H11.6046C11.6046 25.0949 11.6046 12.825 11.6046 11.595H16.1318V13.5C16.5431 12.7907 17.1412 12.2063 17.8618 11.8098C18.5825 11.4134 19.3982 11.2198 20.2213 11.2501C23.2394 11.2501 25.4276 13.185 25.4276 17.34V25.1099Z" fill="#E0E0E0"/>
</svg>
