<svg width="25" height="25" viewBox="0 0 25 25" fill="none" xmlns="http://www.w3.org/2000/svg">
<path d="M12.5572 16.6838L7.6757 21.5653C7.38698 21.8552 7.04386 22.0852 6.66603 22.2421C6.28821 22.3991 5.88311 22.4799 5.47399 22.4799C5.06487 22.4799 4.65977 22.3991 4.28195 22.2421C3.90412 22.0852 3.561 21.8552 3.27228 21.5653C2.9809 21.2775 2.74956 20.9346 2.59167 20.5567C2.43377 20.1787 2.35247 19.7732 2.35247 19.3636C2.35247 18.954 2.43377 18.5485 2.59167 18.1706C2.74956 17.7926 2.9809 17.4498 3.27228 17.1619L8.15378 12.2804C8.39069 12.0435 8.52379 11.7222 8.52379 11.3872C8.52379 11.0521 8.39069 10.7308 8.15378 10.4939C7.91687 10.257 7.59556 10.1239 7.26052 10.1239C6.92548 10.1239 6.60416 10.257 6.36725 10.4939L1.48575 15.388C0.50235 16.4584 -0.029502 17.8673 0.00126408 19.3205C0.0320301 20.7738 0.623035 22.1589 1.65086 23.1868C2.67868 24.2146 4.06384 24.8056 5.51708 24.8364C6.97031 24.8671 8.37925 24.3353 9.44965 23.3519L14.3437 18.4704C14.461 18.3531 14.5541 18.2138 14.6176 18.0605C14.6811 17.9073 14.7137 17.743 14.7137 17.5771C14.7137 17.4112 14.6811 17.2469 14.6176 17.0937C14.5541 16.9404 14.461 16.8011 14.3437 16.6838C14.2264 16.5665 14.0872 16.4735 13.9339 16.41C13.7806 16.3465 13.6164 16.3138 13.4505 16.3138C13.2846 16.3138 13.1203 16.3465 12.967 16.41C12.8138 16.4735 12.6745 16.5665 12.5572 16.6838ZM8.43057 16.407C8.54813 16.5237 8.68755 16.6159 8.84083 16.6785C8.99412 16.7411 9.15826 16.7729 9.32383 16.7719C9.48941 16.7729 9.65355 16.7411 9.80683 16.6785C9.96012 16.6159 10.0995 16.5237 10.2171 16.407L16.407 10.2171C16.644 9.98019 16.7771 9.65887 16.7771 9.32383C16.7771 8.9888 16.644 8.66748 16.407 8.43057C16.1701 8.19366 15.8488 8.06057 15.5138 8.06057C15.1787 8.06057 14.8574 8.19366 14.6205 8.43057L8.43057 14.6205C8.31265 14.7375 8.21905 14.8766 8.15518 15.0299C8.09131 15.1833 8.05842 15.3477 8.05842 15.5138C8.05842 15.6799 8.09131 15.8443 8.15518 15.9976C8.21905 16.1509 8.31265 16.2901 8.43057 16.407ZM23.7419 19.9675H22.4838V18.7094C22.4838 18.3757 22.3512 18.0557 22.1153 17.8198C21.8793 17.5838 21.5593 17.4513 21.2256 17.4513C20.892 17.4513 20.572 17.5838 20.336 17.8198C20.1001 18.0557 19.9675 18.3757 19.9675 18.7094V19.9675H18.7094C18.3757 19.9675 18.0557 20.1001 17.8198 20.336C17.5838 20.572 17.4513 20.892 17.4513 21.2256C17.4513 21.5593 17.5838 21.8793 17.8198 22.1153C18.0557 22.3512 18.3757 22.4838 18.7094 22.4838H19.9675V23.7419C19.9675 24.0756 20.1001 24.3956 20.336 24.6315C20.572 24.8675 20.892 25 21.2256 25C21.5593 25 21.8793 24.8675 22.1153 24.6315C22.3512 24.3956 22.4838 24.0756 22.4838 23.7419V22.4838H23.7419C24.0756 22.4838 24.3956 22.3512 24.6315 22.1153C24.8675 21.8793 25 21.5593 25 21.2256C25 20.892 24.8675 20.572 24.6315 20.336C24.3956 20.1001 24.0756 19.9675 23.7419 19.9675ZM18.4704 14.3437L23.3519 9.44965C24.3353 8.37925 24.8671 6.97031 24.8364 5.51708C24.8056 4.06384 24.2146 2.67868 23.1868 1.65086C22.1589 0.623035 20.7738 0.0320301 19.3205 0.00126408C17.8673 -0.029502 16.4584 0.50235 15.388 1.48575L10.4939 6.36725C10.3766 6.48456 10.2835 6.62382 10.22 6.77709C10.1566 6.93035 10.1239 7.09462 10.1239 7.26052C10.1239 7.42641 10.1566 7.59068 10.22 7.74395C10.2835 7.89722 10.3766 8.03648 10.4939 8.15378C10.6112 8.27109 10.7505 8.36414 10.9037 8.42763C11.057 8.49111 11.2213 8.52379 11.3872 8.52379C11.553 8.52379 11.7173 8.49111 11.8706 8.42763C12.0238 8.36414 12.1631 8.27109 12.2804 8.15378L17.1619 3.27228C17.4506 2.98242 17.7938 2.75242 18.1716 2.59548C18.5494 2.43854 18.9545 2.35775 19.3636 2.35775C19.7728 2.35775 20.1778 2.43854 20.5557 2.59548C20.9335 2.75242 21.2766 2.98242 21.5653 3.27228C21.8567 3.56015 22.0881 3.90299 22.246 4.28093C22.4038 4.65887 22.4851 5.06439 22.4851 5.47399C22.4851 5.88359 22.4038 6.28911 22.246 6.66705C22.0881 7.04499 21.8567 7.38783 21.5653 7.6757L16.6838 12.5572C16.5659 12.6742 16.4723 12.8133 16.4084 12.9666C16.3446 13.1199 16.3117 13.2844 16.3117 13.4505C16.3117 13.6166 16.3446 13.781 16.4084 13.9343C16.4723 14.0876 16.5659 14.2268 16.6838 14.3437C16.8008 14.4617 16.9399 14.5553 17.0933 14.6191C17.2466 14.683 17.411 14.7159 17.5771 14.7159C17.7432 14.7159 17.9076 14.683 18.0609 14.6191C18.2143 14.5553 18.3534 14.4617 18.4704 14.3437Z" fill="#E0E0E0"/>
</svg>
