<svg width="57" height="83" viewBox="0 0 57 83" fill="none" xmlns="http://www.w3.org/2000/svg">
<path d="M5.93843 83H6.54023C8.132 82.9892 9.65454 82.3479 10.774 81.2167C11.8935 80.0855 12.5186 78.5567 12.5122 76.9656V63.5341C12.5122 62.198 13.0432 60.9167 13.9883 59.9719C14.9334 59.0272 16.2152 58.4964 17.5518 58.4964C18.8884 58.4964 20.1703 59.0272 21.1154 59.9719C22.0605 60.9167 22.5915 62.198 22.5915 63.5341V76.9656C22.5915 78.555 23.2231 80.0794 24.3475 81.2033C25.4718 82.3272 26.9968 82.9587 28.5869 82.9587C30.177 82.9587 31.7019 82.3272 32.8263 81.2033C33.9507 80.0794 34.5823 78.555 34.5823 76.9656V63.5341C34.5823 62.198 35.1133 60.9167 36.0584 59.9719C37.0035 59.0272 38.2854 58.4964 39.622 58.4964C40.9585 58.4964 42.2404 59.0272 43.1855 59.9719C44.1306 60.9167 44.6616 62.198 44.6616 63.5341V76.9656C44.6612 78.5596 45.2919 80.0889 46.4159 81.2196C47.5399 82.3503 49.0659 82.9904 50.6605 83H51.0616C54.3716 83 57 80.2743 57 76.9656V28.5518C57 12.8082 44.2504 0 28.5 0C12.7496 0 0 12.8082 0 28.5523V76.9661C0 80.2743 2.62843 83 5.93843 83ZM2.78049 28.5523C2.78049 14.3407 14.2827 2.77941 28.5 2.77941C42.7173 2.77941 54.2195 14.3416 54.2195 28.5532V76.9669C54.2195 78.7416 52.8383 80.2206 51.0616 80.2206H50.6605C49.8031 80.2118 48.9838 79.8648 48.3811 79.2552C47.7783 78.6456 47.4408 77.8227 47.4421 76.9656V63.5341C47.4421 61.4609 46.6182 59.4726 45.1516 58.0066C43.6851 56.5406 41.696 55.717 39.622 55.717C37.5479 55.717 35.5589 56.5406 34.0923 58.0066C32.6257 59.4726 31.8018 61.4609 31.8018 63.5341V76.9656C31.8018 77.8179 31.4631 78.6353 30.8602 79.238C30.2573 79.8407 29.4395 80.1792 28.5869 80.1792C27.7342 80.1792 26.9165 79.8407 26.3136 79.238C25.7107 78.6353 25.372 77.8179 25.372 76.9656V63.5341C25.372 61.4609 24.548 59.4726 23.0815 58.0066C21.6149 56.5406 19.6259 55.717 17.5518 55.717C15.4778 55.717 13.4887 56.5406 12.0222 58.0066C10.5556 59.4726 9.73171 61.4609 9.73171 63.5341V76.9656C9.73899 77.8199 9.40714 78.6422 8.8089 79.2524C8.21067 79.8625 7.39484 80.2107 6.54023 80.2206H5.93843C4.16169 80.2206 2.78049 78.7416 2.78049 76.9656V28.5523Z" fill="#E0E0E0"/>
<path d="M17.858 38C19.2144 38 20.5403 37.5895 21.6681 36.8203C22.7959 36.0511 23.6749 34.9578 24.194 33.6787C24.713 32.3997 24.8488 30.9922 24.5842 29.6343C24.3196 28.2764 23.6664 27.0292 22.7073 26.0502C21.7481 25.0712 20.5261 24.4046 19.1958 24.1345C17.8655 23.8644 16.4866 24.0031 15.2334 24.5329C13.9803 25.0627 12.9092 25.96 12.1557 27.1111C11.4022 28.2623 11 29.6157 11 31.0002C11.0022 32.856 11.7254 34.6352 13.0111 35.9474C14.2967 37.2597 16.0398 37.9978 17.858 38ZM17.858 26.7766C18.6766 26.7766 19.4768 27.0243 20.1574 27.4885C20.838 27.9527 21.3685 28.6125 21.6817 29.3844C21.995 30.1563 22.0769 31.0057 21.9173 31.8252C21.7576 32.6447 21.3634 33.3974 20.7846 33.9882C20.2057 34.579 19.4683 34.9814 18.6654 35.1444C17.8626 35.3074 17.0304 35.2237 16.2741 34.904C15.5179 34.5842 14.8715 34.0428 14.4167 33.348C13.9619 32.6533 13.7192 31.8366 13.7192 31.001C13.7201 29.8808 14.1565 28.8068 14.9324 28.0146C15.7083 27.2224 16.7605 26.7767 17.858 26.7755V26.7766ZM39.1418 38C40.4982 38 41.8242 37.5895 42.952 36.8204C44.0798 36.0512 44.9588 34.958 45.4779 33.6789C45.997 32.3998 46.1328 30.9923 45.8682 29.6344C45.6036 28.2765 44.9505 27.0292 43.9913 26.0503C43.0322 25.0713 41.8102 24.4046 40.4799 24.1345C39.1496 23.8644 37.7706 24.003 36.5175 24.5329C35.2643 25.0627 34.1933 25.9599 33.4397 27.1111C32.6862 28.2623 32.284 29.6157 32.284 31.0002C32.2862 32.856 33.0094 34.6351 34.295 35.9474C35.5806 37.2596 37.3237 37.9978 39.1418 38ZM39.1418 26.7766C39.9604 26.7765 40.7606 27.0242 41.4413 27.4884C42.1219 27.9526 42.6524 28.6124 42.9657 29.3843C43.279 30.1562 43.361 31.0056 43.2013 31.8251C43.0416 32.6446 42.6474 33.3973 42.0686 33.9881C41.4898 34.579 40.7524 34.9813 39.9495 35.1444C39.1467 35.3074 38.3145 35.2237 37.5582 34.904C36.8019 34.5842 36.1555 34.0428 35.7007 33.3481C35.246 32.6533 35.0032 31.8366 35.0032 31.001C35.0042 29.8809 35.4405 28.8068 36.2164 28.0146C36.9923 27.2224 38.0444 26.7768 39.1418 26.7755V26.7766Z" fill="#E0E0E0"/>
</svg>
