<svg width="10" height="9" viewBox="0 0 10 9" fill="none" xmlns="http://www.w3.org/2000/svg">
<path d="M3.84444 0.5H1.35556C1.15919 0.5 1 0.659188 1 0.855556V3.34444C1 3.54081 1.15919 3.7 1.35556 3.7H3.84444C4.04081 3.7 4.2 3.54081 4.2 3.34444V0.855556C4.2 0.659188 4.04081 0.5 3.84444 0.5Z" stroke="#E0E0E0" stroke-width="0.5" stroke-linecap="round" stroke-linejoin="round"/>
<path d="M3.84444 5.30002H1.35556C1.15919 5.30002 1 5.45921 1 5.65558V8.14447C1 8.34083 1.15919 8.50002 1.35556 8.50002H3.84444C4.04081 8.50002 4.2 8.34083 4.2 8.14447V5.65558C4.2 5.45921 4.04081 5.30002 3.84444 5.30002Z" stroke="#E0E0E0" stroke-width="0.5" stroke-linecap="round" stroke-linejoin="round"/>
<path d="M8.64444 0.5H6.15555C5.95918 0.5 5.79999 0.659188 5.79999 0.855556V3.34444C5.79999 3.54081 5.95918 3.7 6.15555 3.7H8.64444C8.84081 3.7 8.99999 3.54081 8.99999 3.34444V0.855556C8.99999 0.659188 8.84081 0.5 8.64444 0.5Z" stroke="#E0E0E0" stroke-width="0.5" stroke-linecap="round" stroke-linejoin="round"/>
<path d="M8.64443 5.30002H6.15554C5.95918 5.30002 5.79999 5.45921 5.79999 5.65558V8.14447C5.79999 8.34083 5.95918 8.50002 6.15554 8.50002H8.64443C8.8408 8.50002 8.99999 8.34083 8.99999 8.14447V5.65558C8.99999 5.45921 8.8408 5.30002 8.64443 5.30002Z" stroke="#E0E0E0" stroke-width="0.5" stroke-linecap="round" stroke-linejoin="round"/>
</svg>
