<svg width="30" height="30" viewBox="0 0 30 30" fill="none" xmlns="http://www.w3.org/2000/svg">
<g clip-path="url(#clip0_5_15)">
<mask id="mask0_5_15" style="mask-type:luminance" maskUnits="userSpaceOnUse" x="0" y="0" width="30" height="30">
<path d="M30 0H0V30H30V0Z" fill="white"/>
</mask>
<g mask="url(#mask0_5_15)">
<path d="M26.4844 0H3.51562C1.574 0 0 1.574 0 3.51562V26.4844C0 28.426 1.574 30 3.51562 30H26.4844C28.426 30 30 28.426 30 26.4844V3.51562C30 1.574 28.426 0 26.4844 0Z" fill="#E0E0E0"/>
<path d="M20.8538 5.85938H23.955L17.1797 13.6031L25.1503 24.1406H18.9094L14.0213 17.7497L8.42813 24.1406H5.32503L12.5719 15.8578L4.92566 5.85938H11.325L15.7434 11.7009L20.8538 5.85938ZM19.7653 22.2844H21.4838L10.3913 7.61813H8.54719L19.7653 22.2844Z" fill="#282828"/>
</g>
</g>
<defs>
<clipPath id="clip0_5_15">
<rect width="30" height="30" fill="white"/>
</clipPath>
</defs>
</svg>
